<svg id="Capa_1" enable-background="new 0 0 512 512" height="512" viewBox="0 0 512 512" width="512" xmlns="http://www.w3.org/2000/svg"><path d="m496.323 175.839h-320.645c-4.427 0-9.322 3.589-10.934 8.016l-37.929 104.211 30.755 48.095h280.4c4.427 0 9.322-3.589 10.934-8.016l52.517-144.29c1.612-4.427-.671-8.016-5.098-8.016z" fill="#f9eac7"/><ellipse cx="218.646" cy="256" fill="#b6b1b7" rx="19.213" ry="13.378" transform="matrix(.768 -.641 .641 .768 -113.247 199.526)"/><ellipse cx="395.001" cy="256" fill="#b9cda5" rx="19.213" ry="13.378" transform="matrix(.768 -.641 .641 .768 -72.298 312.514)"/><path d="m163.581 311.551-14.551-17.036 43.195-118.676h-16.547c-4.428 0-9.323 3.589-10.934 8.016l-37.93 104.211 30.755 48.095h280.4c4.428 0 9.323-3.589 10.934-8.016l5.836-16.595h-291.158z" fill="#f4dbb3"/><ellipse cx="306.824" cy="256" fill="#9b959d" rx="54.576" ry="35.322" transform="matrix(.62 -.785 .785 .62 -84.26 338.039)"/><path d="m126.976 288.065 30.591 48.097 13.59-37.339c1.903-5.228-1.969-10.758-7.533-10.758z" fill="#eac89f"/><path d="m510.644 171.537c-1.403-2.005-3.697-3.198-6.144-3.198h-336.677c-3.153 0-5.969 1.972-7.048 4.935l-40.848 112.227c-.797 2.189-.531 4.625.72 6.591l30.593 48.095c1.376 2.164 3.763 3.475 6.328 3.475h288.58c3.153 0 5.969-1.972 7.048-4.935l58.353-160.323c.836-2.3.498-4.863-.905-6.867zm-354.918 147.754-15.092-23.727h23.728zm285.17 9.37h-272.618l13.842-38.032c.837-2.3.5-4.863-.904-6.867-1.403-2.005-3.697-3.198-6.144-3.198h-37.385l35.387-97.226h320.715z"/><path d="m168.146 263.048c.847.308 1.712.454 2.564.454 3.063 0 5.94-1.891 7.048-4.937l15.709-43.162h93.691c-11.828 9.567-21.821 22.969-27.303 38.031-5.979 16.427-5.408 32.017 1.477 43.162h-60.031c-4.142 0-7.5 3.358-7.5 7.5s3.358 7.5 7.5 7.5h224.451c3.153 0 5.969-1.972 7.048-4.935l35.012-96.193c.837-2.3.5-4.863-.904-6.867-1.403-2.004-3.697-3.198-6.144-3.198h-16.032c-4.142 0-7.5 3.358-7.5 7.5s3.358 7.5 7.5 7.5h5.321l-29.552 81.193h-93.691c11.828-9.567 21.821-22.969 27.303-38.031 5.979-16.427 5.408-32.017-1.477-43.162h60.031c4.142 0 7.5-3.358 7.5-7.5s-3.358-7.5-7.5-7.5h-224.45c-3.153 0-5.969 1.972-7.048 4.935l-17.506 48.097c-1.416 3.892.59 8.196 4.483 9.613zm171.177-40.636c4.938 7.053 5.198 18.65.695 31.023-8.515 23.396-31.659 43.162-50.539 43.162-6.585 0-11.575-2.358-14.832-7.009-4.938-7.053-5.199-18.65-.695-31.023 8.515-23.396 31.659-43.162 50.539-43.162 6.585 0 11.575 2.359 14.832 7.009z"/><path d="m212.972 279.532c11.935 0 24.636-9.21 28.916-20.967 2.453-6.739 1.831-13.501-1.707-18.552-3.357-4.795-9.021-7.545-15.538-7.545-11.935 0-24.636 9.21-28.915 20.967-2.453 6.739-1.831 13.501 1.707 18.553 3.357 4.794 9.02 7.544 15.537 7.544zm-3.149-20.967c2.151-5.912 9.077-11.097 14.819-11.097.914 0 2.551.149 3.251 1.149.67.958.632 2.804-.102 4.818-2.151 5.912-9.077 11.097-14.82 11.097-.914 0-2.551-.149-3.25-1.148-.67-.958-.631-2.804.102-4.819z"/><path d="m400.998 232.468c-11.935 0-24.636 9.21-28.915 20.967-2.453 6.739-1.832 13.501 1.706 18.552 3.357 4.795 9.021 7.545 15.539 7.545 11.935 0 24.636-9.21 28.915-20.967 2.453-6.739 1.831-13.501-1.707-18.552-3.358-4.795-9.021-7.545-15.538-7.545zm3.149 20.967c-2.152 5.912-9.078 11.098-14.82 11.098-.914 0-2.551-.149-3.251-1.149-.67-.958-.631-2.804.102-4.818 2.151-5.912 9.077-11.097 14.819-11.097.914 0 2.551.149 3.251 1.149.671.956.632 2.802-.101 4.817z"/><path d="m298.585 279.08c.847.308 1.712.454 2.564.454 3.063 0 5.94-1.891 7.048-4.937l11.67-32.064c1.417-3.892-.59-8.196-4.483-9.613-3.892-1.417-8.196.59-9.613 4.482l-11.67 32.064c-1.415 3.893.591 8.197 4.484 9.614z"/><path d="m127.226 191.871c0-4.142-3.358-7.5-7.5-7.5h-112.226c-4.142 0-7.5 3.358-7.5 7.5s3.358 7.5 7.5 7.5h112.226c4.142 0 7.5-3.358 7.5-7.5z"/><path d="m111.709 216.436h-80.161c-4.142 0-7.5 3.358-7.5 7.5s3.358 7.5 7.5 7.5h80.161c4.142 0 7.5-3.358 7.5-7.5s-3.357-7.5-7.5-7.5z"/><path d="m103.693 248.5h-48.096c-4.142 0-7.5 3.358-7.5 7.5s3.358 7.5 7.5 7.5h48.097c4.142 0 7.5-3.358 7.5-7.5-.001-4.142-3.359-7.5-7.501-7.5z"/></svg>