<svg height="488pt" viewBox="-20 0 488 488" width="488pt" xmlns="http://www.w3.org/2000/svg"><path d="m34 484c-16.566406 0-30-13.433594-30-30v-420c0-16.566406 13.433594-30 30-30s30 13.433594 30 30v420c0 16.566406-13.429688 30-30 30zm0 0" fill="#e0ebfc"/><path d="m20 34v135.335938h28v-135.335938c0-7.71875-6.28125-14-14-14s-14 6.28125-14 14zm0 0" fill="#f9a7a7"/><path d="m20 289.640625v103.695313h28v-103.695313zm0 0" fill="#a4c9ff"/><path d="m20 185.953125h28v103.6875h-28zm0 0" fill="#f9cfcf"/><path d="m20 393.335938v60.664062c0 7.71875 6.28125 14 14 14s14-6.28125 14-14v-60.664062zm0 0" fill="#4671c6"/><path d="m203.472656 388.601562h111.046875c1.351563 0 2.632813-.558593 3.617188-1.53125 16.464843-16.234374 38.636719-26.195312 63.039062-26.195312 7.617188 0 15.019531.976562 22.097657 2.8125 3.796874.984375 7.234374-2.484375 6.429687-6.492188-1.285156-6.40625-1.964844-13.046874-1.964844-19.855468 0-30.140625 13.265625-56.996094 33.976563-74.648438 1.242187-1.058594 1.988281-2.625 1.988281-4.300781 0-1.335937-.472656-2.609375-1.308594-3.617187-13.941406-16.875-22.398437-38.855469-22.398437-62.917969 0-24.804688 8.992187-47.378907 23.707031-64.445313v-1.445312c-8.171875 2.492187-16.808594 3.84375-25.75 3.84375-43.140625 0-79.320313-31.109375-89.238281-73.070313-.972656-4.117187-5.945313-5.539062-8.789063-2.519531-16.402343 17.410156-39.09375 28.304688-64.222656 28.652344-25.132813-.347656-47.820313-11.238282-64.226563-28.652344-2.84375-3.019531-7.816406-1.59375-8.789062 2.519531-9.914062 41.957031-46.09375 73.070313-89.234375 73.070313-8.941406 0-17.578125-1.355469-25.75-3.847656v1.445312c14.714844 17.066406 23.703125 39.644531 23.703125 64.445312 0 24.0625-8.453125 46.042969-22.394531 62.921876-.832031 1.007812-1.308594 2.28125-1.308594 3.613281 0 1.679687.746094 3.242187 1.988281 4.304687 20.710938 17.648438 33.976563 44.503906 33.976563 74.648438 0 7.386718-.800781 14.582031-2.308594 21.488281-.789063 3.613281 2.035156 6.953125 5.5625 6.660156 14.59375-1.195312 47.945313-.804687 78.398437 22.0625.894532.671875 1.964844 1.050781 3.066407 1.050781zm0 0" fill="#ffea92"/><path d="m314.519531 392.601562h-126.132812c-1.9375 0-3.878907-.660156-5.464844-1.851562-29.78125-22.359375-62.835937-22.320312-75.671875-21.273438-2.90625.246094-5.707031-.902343-7.660156-3.128906-1.984375-2.273437-2.785156-5.398437-2.136719-8.371094 1.472656-6.730468 2.21875-13.675781 2.21875-20.636718 0-27.871094-11.875-53.964844-32.570313-71.605469-2.160156-1.839844-3.394531-4.515625-3.394531-7.34375 0-2.238281.789063-4.425781 2.222657-6.164063 13.851562-16.765624 21.480468-38.207031 21.480468-60.375 0-22.867187-8.074218-44.828124-22.734375-61.832031-.625-.726562-.96875-1.652343-.96875-2.613281v-1.445312c0-1.269532.601563-2.460938 1.617188-3.214844 1.019531-.753906 2.332031-.980469 3.546875-.613282 7.992187 2.4375 16.261718 3.671876 24.582031 3.671876 40.511719 0 75.605469-28.78125 85.347656-69.992188.796875-3.375 3.339844-6.019531 6.640625-6.90625 3.269532-.875 6.617188.082031 8.953125 2.5625 16.339844 17.34375 38.132813 27.074219 61.367188 27.394531 23.125-.320312 44.917969-10.050781 61.257812-27.394531 2.339844-2.480469 5.695313-3.433594 8.953125-2.5625 3.300782.882812 5.84375 3.53125 6.640625 6.90625 9.742188 41.210938 44.835938 69.992188 85.347657 69.992188 8.320312 0 16.589843-1.238282 24.582031-3.671876 1.214843-.367187 2.527343-.140624 3.546875.613282 1.015625.753906 1.617187 1.949218 1.617187 3.214844v1.445312c0 .957031-.34375 1.886719-.96875 2.613281-14.660156 17.003907-22.734375 38.964844-22.734375 61.832031 0 22.167969 7.628906 43.605469 21.480469 60.371094 1.433594 1.734375 2.222656 3.921875 2.222656 6.164063 0 2.832031-1.234375 5.507812-3.390625 7.34375-20.703125 17.640625-32.574218 43.738281-32.574218 71.605469 0 6.421874.636718 12.835937 1.886718 19.066406.664063 3.3125-.375 6.652344-2.789062 8.933594-2.304688 2.183593-5.511719 3.011718-8.566406 2.21875-6.878907-1.78125-13.976563-2.683594-21.097657-2.683594-22.464843 0-43.855469 8.894531-60.226562 25.042968-1.757813 1.734376-4.042969 2.6875-6.429688 2.6875zm-198.609375-31.464843c16.992188 0 45.5625 3.507812 71.8125 23.21875.210938.160156.449219.246093.660156.246093h126.132813c.277344 0 .5625-.136718.8125-.378906 17.875-17.636718 41.261719-27.351562 65.84375-27.351562 7.792969 0 15.566406.992187 23.101563 2.941406.398437.097656.753906.003906 1.066406-.285156.1875-.179688.613281-.691406.441406-1.550782-1.355469-6.746093-2.042969-13.691406-2.042969-20.636718 0-30.214844 12.894531-58.535156 35.382813-77.695313.367187-.316406.582031-.773437.582031-1.253906 0-.382813-.140625-.761719-.390625-1.066406-15.035156-18.199219-23.316406-41.449219-23.316406-65.46875 0-21.566407 6.636718-42.402344 18.847656-59.609375-5.566406 1.039062-11.214844 1.5625-16.886719 1.5625-44.238281 0-82.535156-31.316406-93.132812-76.152344-.167969-.714844-.648438-.941406-.921875-1.015625-.40625-.109375-.761719-.003906-1.058594.316406-17.839844 18.9375-41.664062 29.558594-67.082031 29.910157-25.53125-.347657-49.355469-10.972657-67.195313-29.90625-.296875-.320313-.652344-.425782-1.058594-.320313-.273437.074219-.753906.304687-.921874 1.015625-10.601563 44.835938-48.898438 76.152344-93.132813 76.152344-5.671875 0-11.320313-.523438-16.886719-1.5625 12.207032 17.207031 18.84375 38.042968 18.84375 59.609375 0 24.019531-8.28125 47.269531-23.3125 65.464843-.253906.304688-.390625.6875-.390625 1.070313 0 .484375.210938.941406.582031 1.257813 22.484376 19.15625 35.382813 47.476562 35.382813 77.691406 0 7.535156-.808594 15.050781-2.402344 22.34375-.15625.722656.1875 1.214844.34375 1.390625.1875.21875.488281.445312.984375.429687 2.457032-.203125 5.609375-.367187 9.3125-.367187zm0 0" fill="#3762cc"/><path d="m157.054688 261.25h32.125c5.320312 0 9.632812-4.3125 9.632812-9.636719 0 5.320313 4.316406 9.636719 9.640625 9.636719h32.121094c5.324219 0 9.636719-4.3125 9.636719-9.636719 0 5.320313 4.316406 9.636719 9.640624 9.636719h32.121094c5.324219 0 9.640625-4.3125 9.640625-9.636719 0 5.320313 4.3125 9.636719 9.636719 9.636719h32.125c5.320312 0 9.636719-4.3125 9.636719-9.636719v-54.539062h-205.597657v54.539062c0 5.320313 4.316407 9.636719 9.640626 9.636719zm0 0" fill="#f9cfcf"/><path d="m326.621094 376.492188c.988281-.597657 1.953125-1.226563 2.902344-1.882813-.945313.65625-1.914063 1.285156-2.902344 1.882813zm0 0" fill="#f9cfcf"/><path d="m198.8125 251.613281c0 5.320313-4.3125 9.636719-9.636719 9.636719h-32.121093c-5.324219 0-9.640626-4.3125-9.640626-9.636719v78.121094c0 24.132813 15.664063 44.59375 37.371094 51.816406v102.449219h141.835938v-107.507812c15.816406-9.566407 26.386718-26.925782 26.386718-46.761719v-78.121094c0 5.324219-4.3125 9.636719-9.636718 9.636719h-32.125c-5.320313 0-9.636719-4.3125-9.636719-9.636719 0 5.324219-4.316406 9.636719-9.640625 9.636719h-32.121094c-5.324218 0-9.640625-4.3125-9.640625-9.636719 0 5.324219-4.3125 9.636719-9.636719 9.636719h-32.117187c-5.324219 0-9.640625-4.3125-9.640625-9.632813zm0 0" fill="#f9cfcf"/><path d="m373.675781 455.792969 5.082031-15.140625 4.859376-14.476563c.953124-2.839843-1.007813-5.820312-3.992188-6.070312l-46.191406-3.871094 46.15625-12.652344c2.957031-.808593 4.316406-4.226562 2.722656-6.847656l-8.003906-13.1875-8.5625-14.101563c-1.40625-2.316406-4.5-2.929687-6.683594-1.320312l-27.179688 20.011719v53.6875l35.453126 16.675781c2.5 1.175781 5.460937-.089844 6.339843-2.707031zm0 0" fill="#4671c6"/><path d="m189.179688 261.246094h-32.125c-5.324219 0-9.640626-4.3125-9.640626-9.636719v-79.195313c0-7.097656 5.753907-12.851562 12.851563-12.851562h25.699219c7.097656 0 12.851562 5.753906 12.851562 12.851562v79.195313c-.003906 5.324219-4.316406 9.636719-9.636718 9.636719zm0 0" fill="#f9cfcf"/><path d="m240.574219 261.246094h-32.121094c-5.324219 0-9.640625-4.3125-9.640625-9.636719v-79.195313c0-7.097656 5.753906-12.851562 12.851562-12.851562h25.699219c7.097657 0 12.851563 5.753906 12.851563 12.851562v79.195313c-.003906 5.324219-4.316406 9.636719-9.640625 9.636719zm0 0" fill="#f9cfcf"/><path d="m291.972656 261.246094h-32.121094c-5.324218 0-9.640624-4.3125-9.640624-9.636719v-79.195313c0-7.097656 5.753906-12.851562 12.851562-12.851562h25.699219c7.097656 0 12.851562 5.753906 12.851562 12.851562v79.195313c-.003906 5.324219-4.316406 9.636719-9.640625 9.636719zm0 0" fill="#f9cfcf"/><path d="m343.371094 261.246094h-32.125c-5.320313 0-9.636719-4.3125-9.636719-9.636719v-79.195313c0-7.097656 5.753906-12.851562 12.851563-12.851562h25.699218c7.097656 0 12.851563 5.753906 12.851563 12.851562v79.195313c-.003907 5.324219-4.316407 9.636719-9.640625 9.636719zm0 0" fill="#f9cfcf"/><g fill="#3762cc"><path d="m189.179688 265.25h-32.125c-7.519532 0-13.636719-6.117188-13.636719-13.636719v-79.199219c0-9.289062 7.558593-16.847656 16.851562-16.847656h25.699219c9.292969 0 16.847656 7.558594 16.847656 16.847656v79.199219c-.003906 7.515625-6.117187 13.636719-13.636718 13.636719zm-28.914063-101.683594c-4.878906 0-8.851563 3.96875-8.851563 8.847656v79.199219c0 3.105469 2.53125 5.636719 5.636719 5.636719h32.128907c3.105468 0 5.632812-2.53125 5.632812-5.636719v-79.199219c0-4.878906-3.96875-8.847656-8.847656-8.847656zm0 0"/><path d="m240.574219 265.25h-32.121094c-7.519531 0-13.636719-6.117188-13.636719-13.636719v-79.199219c0-9.289062 7.558594-16.847656 16.847656-16.847656h25.703126c9.289062 0 16.847656 7.558594 16.847656 16.847656v79.199219c0 7.515625-6.121094 13.636719-13.640625 13.636719zm-28.910157-101.683594c-4.878906 0-8.851562 3.96875-8.851562 8.847656v79.199219c0 3.105469 2.53125 5.636719 5.636719 5.636719h32.125c3.109375 0 5.636719-2.53125 5.636719-5.636719v-79.199219c0-4.878906-3.96875-8.847656-8.847657-8.847656zm0 0"/><path d="m291.972656 265.25h-32.121094c-7.523437 0-13.636718-6.117188-13.636718-13.636719v-79.199219c0-9.289062 7.558594-16.847656 16.847656-16.847656h25.703125c9.289063 0 16.847656 7.558594 16.847656 16.847656v79.199219c0 7.515625-6.121093 13.636719-13.640625 13.636719zm-28.910156-101.683594c-4.878906 0-8.851562 3.96875-8.851562 8.847656v79.199219c0 3.105469 2.53125 5.636719 5.636718 5.636719h32.125c3.109375 0 5.636719-2.53125 5.636719-5.636719v-79.199219c0-4.878906-3.96875-8.847656-8.847656-8.847656zm0 0"/><path d="m343.371094 265.25h-32.125c-7.519532 0-13.632813-6.117188-13.632813-13.636719v-79.199219c0-9.289062 7.558594-16.847656 16.847657-16.847656h25.699218c9.292969 0 16.851563 7.558594 16.851563 16.847656v79.199219c-.003907 7.515625-6.121094 13.636719-13.640625 13.636719zm-28.910156-101.683594c-4.878907 0-8.847657 3.96875-8.847657 8.847656v79.199219c0 3.105469 2.527344 5.636719 5.632813 5.636719h32.125c3.109375 0 5.636718-2.53125 5.636718-5.636719v-79.199219c0-4.878906-3.96875-8.847656-8.851562-8.847656zm0 0"/><path d="m326.621094 488h-141.835938c-2.207031 0-4-1.792969-4-4v-99.640625c-22.46875-8.71875-37.371094-30.316406-37.371094-54.625v-78.121094c0-2.210937 1.792969-4 4-4 2.210938 0 4 1.789063 4 4 0 3.105469 2.53125 5.636719 5.636719 5.636719h32.128907c3.105468 0 5.632812-2.53125 5.632812-5.636719 0-2.210937 1.792969-4 4-4 2.210938 0 4 1.789063 4 4 0 3.105469 2.53125 5.636719 5.636719 5.636719h32.125c3.109375 0 5.636719-2.53125 5.636719-5.636719 0-2.210937 1.792968-4 4-4 2.210937 0 4 1.789063 4 4 0 3.105469 2.53125 5.636719 5.636718 5.636719h32.125c3.109375 0 5.636719-2.53125 5.636719-5.636719 0-2.210937 1.792969-4 4-4s4 1.789063 4 4c0 3.105469 2.53125 5.636719 5.636719 5.636719h32.125c3.105468 0 5.636718-2.53125 5.636718-5.636719 0-2.210937 1.789063-4 4-4 2.207032 0 4 1.789063 4 4v78.121094c0 19.9375-9.820312 38.070313-26.386718 48.964844v105.300781c0 2.207031-1.792969 4-4 4zm-137.835938-8h133.835938v-103.507812c0-1.398438.734375-2.699219 1.929687-3.421876 15.316407-9.261718 24.460938-25.460937 24.460938-43.335937v-65.703125c-1.71875.78125-3.628907 1.21875-5.636719 1.21875h-32.125c-3.761719 0-7.167969-1.53125-9.636719-3.996094-2.46875 2.464844-5.878906 3.996094-9.636719 3.996094h-32.125c-3.757812 0-7.167968-1.53125-9.636718-3.996094-2.46875 2.464844-5.875 3.996094-9.636719 3.996094h-32.125c-3.757813 0-7.167969-1.53125-9.636719-3.996094-2.46875 2.464844-5.878906 3.996094-9.636718 3.996094h-32.125c-2.011719 0-3.917969-.4375-5.636719-1.21875v65.703125c0 21.832031 13.917969 41.128906 34.628906 48.019531 1.636719.542969 2.738281 2.074219 2.738281 3.796875zm0 0"/></g><path d="m179.523438 385.523438h152.359374v64.636718h-152.359374zm0 0" fill="#4671c6"/><path d="m331.882812 454.160156h-152.359374c-2.207032 0-4-1.792968-4-4v-64.636718c0-2.210938 1.792968-4 4-4h152.359374c2.210938 0 4 1.789062 4 4v64.636718c0 2.207032-1.789062 4-4 4zm-148.359374-8h144.359374v-56.636718h-144.359374zm0 0" fill="#3762cc"/><path d="m369.300781 462.9375c-1.253906 0-2.511719-.273438-3.667969-.820312l-35.453124-16.675782c-1.402344-.660156-2.296876-2.070312-2.296876-3.621094v-53.683593c0-1.273438.605469-2.464844 1.628907-3.222657l27.179687-20.011718c1.941406-1.429688 4.410156-1.984375 6.78125-1.515625 2.367188.46875 4.441406 1.917969 5.691406 3.984375l16.570313 27.285156c1.417969 2.335938 1.648437 5.125.640625 7.660156s-3.09375 4.402344-5.726562 5.125l-24.40625 6.691406 23.71875 1.984376c2.65625.222656 5.019531 1.625 6.480468 3.855468 1.464844 2.226563 1.820313 4.953125.96875 7.476563l-9.941406 29.617187h-.003906c-.78125 2.328125-2.523438 4.21875-4.785156 5.179688-1.078126.460937-2.230469.691406-3.378907.691406zm4.375-7.144531h.019531zm-37.792969-16.507813 33.15625 15.597656c.207032.09375.386719.058594.503907.007813.113281-.050781.269531-.15625.339843-.371094l9.945313-29.621093c.0625-.1875.042969-.367188-.066406-.53125-.113281-.167969-.269531-.261719-.464844-.277344l-43.410156-3.636719v18.832031zm0-49.125v21.253906l42.652344-11.6875c.195313-.054687.332032-.179687.40625-.367187.078125-.191406.0625-.375-.046875-.550781l-16.566406-27.285156c-.117187-.195313-.285156-.261719-.40625-.289063-.121094-.023437-.304687-.023437-.484375.109375zm0 0" fill="#3762cc"/><path d="m179.269531 262.425781h4.488281c14.191407 0 25.699219-11.503906 25.699219-25.699219 0-7.941406-6.441406-14.382812-14.386719-14.382812h-.277343c-.070313 0-.136719-.007812-.207031-.007812h-63.519532c-7.09375 0-12.847656 5.75-12.847656 12.847656v23.746094c0 2.304687.429688 4.589843 1.269531 6.734374l28.445313 72.816407s.292968 1.957031 1.582031 5.925781c1.472656 4.988281 3.871094 11.847656 6.761719 15.359375l.019531-.03125c9.628906 15.46875 26.734375 25.785156 46.300781 25.785156h37.746094v-62.023437c-.003906-33.726563-27.347656-61.070313-61.074219-61.070313zm0 0" fill="#f9cfcf"/><path d="m240.339844 389.523438h-37.746094c-20.152344 0-38.582031-10.164063-49.40625-27.214844-2.648438-3.21875-5.171875-8.859375-7.507812-16.769532-1.003907-3.089843-1.449219-5.089843-1.617188-5.96875l-28.300781-72.449218c-1.023438-2.628906-1.542969-5.382813-1.542969-8.195313v-23.742187c0-9.292969 7.558594-16.851563 16.851562-16.851563h63.519532c.070312 0 .207031.003907.3125.011719h.171875c10.136719 0 18.382812 8.246094 18.382812 18.382812 0 10.484376-5.460937 19.71875-13.691406 25.003907 25.867187 8.609375 44.574219 33.042969 44.574219 61.761719v62.027343c0 2.210938-1.789063 4.003907-4 4.003907zm-81.238282-32.632813c.222657.21875.421876.460937.589844.734375 9.316406 14.964844 25.351563 23.898438 42.902344 23.898438h33.746094v-58.027344c0-31.464844-25.601563-57.070313-57.070313-57.070313-2.210937 0-4-1.792969-4-4s1.789063-4 4-4h4.488281c11.960938 0 21.699219-9.734375 21.699219-21.699219 0-5.722656-4.660156-10.382812-10.382812-10.382812h-.28125c-.074219 0-.203125-.003906-.304688-.007812h-63.421875c-4.875 0-8.847656 3.96875-8.847656 8.847656v23.746094c0 1.808593.335938 3.589843.996094 5.28125l28.445312 72.816406c.109375.277344.1875.566406.226563.863281.003906 0 .292969 1.773437 1.433593 5.28125 1.910157 6.46875 3.945313 11.277344 5.78125 13.71875zm0 0" fill="#3762cc"/><path d="m4 169.335938h60v16.617187h-60zm0 0" fill="#ffea92"/><path d="m34 488c-18.746094 0-34-15.253906-34-34v-420c0-18.746094 15.253906-34 34-34s34 15.253906 34 34v420c0 18.746094-15.253906 34-34 34zm0-480c-14.335938 0-26 11.664062-26 26v420c0 14.335938 11.664062 26 26 26s26-11.664062 26-26v-420c0-14.335938-11.664062-26-26-26zm0 0" fill="#3762cc"/></svg>